<mxfile host="app.diagrams.net" modified="2024-03-31T06:56:25.153Z" agent="Mozilla/5.0 (Windows NT 10.0; Win64; x64) AppleWebKit/537.36 (KHTML, like Gecko) Chrome/122.0.0.0 Safari/537.36" version="24.0.7" etag="tQWXGxHdnmun9K3f8ehz" type="github">
  <diagram name="第 1 页" id="pvdFyA34GCLMApx1Tsxj">
    <mxGraphModel>
      <root>
        <mxCell id="0" />
        <mxCell id="1" parent="0" />
      </root>
    </mxGraphModel>
  </diagram>
</mxfile>
